<?xml version="1.0" encoding="UTF-8"?>
<svg id="Camada_2" xmlns="http://www.w3.org/2000/svg" viewBox="0 0 1059.15 220.32">
  <defs>
    <style>
      .cls-1 {
        fill: #021027;
      }

      .cls-2 {
        fill: #185de8;
      }

      .cls-3 {
        fill: #165ce9;
      }

      .cls-4 {
        fill: #fe5400;
      }
    </style>
  </defs>
  <g id="Camada_1-2" data-name="Camada_1">
    <g>
      <path class="cls-1" d="M310.73,87.8c4.14-2.38,8.88-3.57,14.22-3.57v21h-5.29c-6.29,0-11.03,1.48-14.22,4.43-3.19,2.95-4.79,8.1-4.79,15.43v39.44h-20v-79.16h20v12.29c2.57-4.19,5.93-7.48,10.07-9.86Z"/>
      <path class="cls-1" d="M337.31,103.38c3.19-6.19,7.52-10.95,13-14.29,5.48-3.33,11.6-5,18.36-5,5.91,0,11.07,1.19,15.5,3.57,4.43,2.38,7.98,5.38,10.65,9v-11.29h20.15v79.16h-20.15v-11.57c-2.57,3.71-6.12,6.79-10.65,9.22-4.53,2.43-9.74,3.64-15.65,3.64-6.67,0-12.74-1.71-18.22-5.14-5.48-3.43-9.81-8.26-13-14.5-3.19-6.24-4.79-13.41-4.79-21.51s1.59-15.1,4.79-21.29ZM391.96,112.45c-1.91-3.48-4.48-6.14-7.72-8-3.24-1.86-6.72-2.79-10.43-2.79s-7.14.91-10.29,2.71c-3.14,1.81-5.69,4.45-7.64,7.93-1.95,3.48-2.93,7.6-2.93,12.36s.98,8.93,2.93,12.5c1.95,3.57,4.52,6.31,7.72,8.22,3.19,1.91,6.6,2.86,10.22,2.86s7.19-.93,10.43-2.79c3.24-1.86,5.81-4.52,7.72-8,1.9-3.48,2.86-7.64,2.86-12.5s-.95-9.02-2.86-12.5Z"/>
      <path class="cls-1" d="M433.47,103.38c3.19-6.19,7.55-10.95,13.07-14.29,5.52-3.33,11.67-5,18.43-5,5.14,0,10.05,1.12,14.72,3.36,4.67,2.24,8.38,5.22,11.15,8.93v-37.58h20.29v105.74h-20.29v-11.72c-2.48,3.91-5.95,7.05-10.43,9.43-4.48,2.38-9.67,3.57-15.58,3.57-6.67,0-12.77-1.71-18.29-5.14-5.53-3.43-9.88-8.26-13.07-14.5-3.19-6.24-4.79-13.41-4.79-21.51s1.59-15.1,4.79-21.29ZM488.13,112.45c-1.91-3.48-4.48-6.14-7.72-8-3.24-1.86-6.72-2.79-10.43-2.79s-7.14.91-10.29,2.71c-3.14,1.81-5.69,4.45-7.64,7.93-1.95,3.48-2.93,7.6-2.93,12.36s.98,8.93,2.93,12.5c1.95,3.57,4.52,6.31,7.72,8.22,3.19,1.91,6.6,2.86,10.22,2.86s7.19-.93,10.43-2.79c3.24-1.86,5.81-4.52,7.72-8,1.9-3.48,2.86-7.64,2.86-12.5s-.95-9.02-2.86-12.5Z"/>
      <path class="cls-1" d="M529.64,103.38c3.19-6.19,7.52-10.95,13-14.29,5.48-3.33,11.6-5,18.36-5,5.91,0,11.07,1.19,15.5,3.57,4.43,2.38,7.98,5.38,10.65,9v-11.29h20.15v79.16h-20.15v-11.57c-2.57,3.71-6.12,6.79-10.65,9.22-4.53,2.43-9.74,3.64-15.65,3.64-6.67,0-12.74-1.71-18.22-5.14-5.48-3.43-9.81-8.26-13-14.5-3.19-6.24-4.79-13.41-4.79-21.51s1.59-15.1,4.79-21.29ZM584.29,112.45c-1.91-3.48-4.48-6.14-7.72-8-3.24-1.86-6.72-2.79-10.43-2.79s-7.14.91-10.29,2.71c-3.14,1.81-5.69,4.45-7.64,7.93-1.95,3.48-2.93,7.6-2.93,12.36s.98,8.93,2.93,12.5c1.95,3.57,4.52,6.31,7.72,8.22,3.19,1.91,6.6,2.86,10.22,2.86s7.19-.93,10.43-2.79c3.24-1.86,5.81-4.52,7.72-8,1.9-3.48,2.86-7.64,2.86-12.5s-.95-9.02-2.86-12.5Z"/>
      <path class="cls-1" d="M656.24,87.8c4.14-2.38,8.88-3.57,14.22-3.57v21h-5.29c-6.29,0-11.03,1.48-14.22,4.43-3.19,2.95-4.79,8.1-4.79,15.43v39.44h-20v-79.16h20v12.29c2.57-4.19,5.93-7.48,10.07-9.86Z"/>
    </g>
    <g>
      <path class="cls-2" d="M758.52,145.44h-39.93l-6.61,19.1h-21.12l36.05-100.4h23.41l36.05,100.4h-21.26l-6.61-19.1ZM753.06,129.35l-14.51-41.94-14.51,41.94h29.01Z"/>
      <path class="cls-2" d="M812.52,64.28v62.05c0,6.8,1.77,11.99,5.31,15.58,3.54,3.59,8.52,5.39,14.94,5.39s11.54-1.8,15.08-5.39c3.54-3.59,5.31-8.78,5.31-15.58v-62.05h20.25v61.91c0,8.52-1.84,15.73-5.53,21.62-3.69,5.89-8.62,10.32-14.79,13.29-6.18,2.97-13.05,4.45-20.61,4.45s-14.25-1.48-20.33-4.45c-6.08-2.97-10.89-7.4-14.44-13.29-3.54-5.89-5.31-13.09-5.31-21.62v-61.91h20.11Z"/>
      <path class="cls-2" d="M953.86,64.28v16.23h-26.72v84.03h-20.11v-84.03h-26.72v-16.23h73.54Z"/>
      <path class="cls-2" d="M982.02,158.94c-7.85-4.4-14.08-10.51-18.67-18.31-4.6-7.8-6.89-16.64-6.89-26.5s2.3-18.55,6.89-26.36c4.6-7.8,10.82-13.91,18.67-18.31,7.85-4.4,16.47-6.61,25.86-6.61s18.12,2.2,25.93,6.61c7.8,4.41,13.98,10.51,18.53,18.31,4.55,7.81,6.82,16.59,6.82,26.36s-2.28,18.7-6.82,26.5c-4.55,7.81-10.75,13.91-18.6,18.31-7.85,4.41-16.47,6.61-25.85,6.61s-18-2.2-25.86-6.61ZM1023.82,143.5c4.6-2.73,8.19-6.63,10.77-11.71,2.59-5.07,3.88-10.96,3.88-17.67s-1.29-12.57-3.88-17.6-6.18-8.88-10.77-11.56c-4.6-2.68-9.91-4.02-15.94-4.02s-11.37,1.34-16.02,4.02c-4.65,2.68-8.26,6.54-10.84,11.56-2.58,5.03-3.88,10.89-3.88,17.6s1.29,12.59,3.88,17.67c2.59,5.08,6.2,8.98,10.84,11.71,4.64,2.73,9.98,4.09,16.02,4.09s11.35-1.36,15.94-4.09Z"/>
    </g>
    <g>
      <path class="cls-4" d="M206.16,42.12c-9.35-13.56-28.52-31.32-28.52-31.32l-54.99,83.88c-3.44-2.93-7.9-4.71-12.78-4.71-10.88,0-19.71,8.82-19.71,19.71s8.82,19.71,19.71,19.71,19.71-8.82,19.71-19.71c0-4.9-1.79-9.37-4.75-12.82l81.32-54.74Z"/>
      <path class="cls-3" d="M158.92,97.59c1.11,4.18,1.71,8.57,1.71,13.09,0,28.17-22.84,51.01-51.01,51.01s-51.01-22.84-51.01-51.01,22.84-51.01,51.01-51.01c2.69,0,5.33.22,7.91.62l10.13-14.24c-5.6-1.53-11.49-2.35-17.57-2.35-36.69,0-66.44,29.74-66.44,66.44s29.74,66.44,66.44,66.44,66.44-29.74,66.44-66.44c0-7.21-1.15-14.14-3.27-20.64l-14.32,8.1Z"/>
      <path class="cls-3" d="M197.8,78.48c3.3,9.55,5.1,19.81,5.1,30.49,0,51.57-41.81,93.38-93.38,93.38S16.14,160.54,16.14,108.97,57.94,15.59,109.52,15.59c10.75,0,21.07,1.82,30.68,5.16l7.65-14.14c-11.76-4.28-24.45-6.62-37.69-6.62C49.32,0,0,49.32,0,110.16s49.32,110.16,110.16,110.16,110.16-49.32,110.16-110.16c0-13.75-2.53-26.91-7.13-39.04l-15.39,7.37Z"/>
    </g>
  </g>
</svg>