<?xml version="1.0" encoding="UTF-8"?>
<svg id="Camada_2" xmlns="http://www.w3.org/2000/svg" viewBox="0 0 220.32 220.32">
  <defs>
    <style>
      .cls-1 {
        fill: #165ce9;
      }

      .cls-2 {
        fill: #fe5400;
      }
    </style>
  </defs>
  <g id="Camada_1-2" data-name="Camada_1">
    <g>
      <path class="cls-2" d="M206.16,42.12c-9.35-13.56-28.52-31.32-28.52-31.32l-54.99,83.88c-3.44-2.93-7.9-4.71-12.78-4.71-10.88,0-19.71,8.82-19.71,19.71s8.82,19.71,19.71,19.71,19.71-8.82,19.71-19.71c0-4.9-1.79-9.37-4.75-12.82l81.32-54.74Z"/>
      <path class="cls-1" d="M158.92,97.59c1.11,4.18,1.71,8.57,1.71,13.09,0,28.17-22.84,51.01-51.01,51.01s-51.01-22.84-51.01-51.01,22.84-51.01,51.01-51.01c2.69,0,5.33.22,7.91.62l10.13-14.24c-5.6-1.53-11.49-2.35-17.57-2.35-36.69,0-66.44,29.74-66.44,66.44s29.74,66.44,66.44,66.44,66.44-29.74,66.44-66.44c0-7.21-1.15-14.14-3.27-20.64l-14.32,8.1Z"/>
      <path class="cls-1" d="M197.8,78.48c3.3,9.55,5.1,19.81,5.1,30.49,0,51.57-41.81,93.38-93.38,93.38S16.14,160.54,16.14,108.97,57.94,15.59,109.52,15.59c10.75,0,21.07,1.82,30.68,5.16l7.65-14.14c-11.76-4.28-24.45-6.62-37.69-6.62C49.32,0,0,49.32,0,110.16s49.32,110.16,110.16,110.16,110.16-49.32,110.16-110.16c0-13.75-2.53-26.91-7.13-39.04l-15.39,7.37Z"/>
    </g>
  </g>
</svg>